<svg width="24" height="25" viewBox="0 0 24 25" fill="none" xmlns="http://www.w3.org/2000/svg">
<mask id="mask0_4002_5021" style="mask-type:alpha" maskUnits="userSpaceOnUse" x="0" y="0" width="24" height="25">
<rect y="0.315002" width="24" height="24" fill="#D9D9D9"/>
</mask>
<g mask="url(#mask0_4002_5021)">
<path d="M11.9998 13.715L7.0998 18.615C6.91647 18.7983 6.68314 18.89 6.3998 18.89C6.11647 18.89 5.88314 18.7983 5.6998 18.615C5.51647 18.4317 5.4248 18.1983 5.4248 17.915C5.4248 17.6317 5.51647 17.3983 5.6998 17.215L10.5998 12.315L5.6998 7.41499C5.51647 7.23166 5.4248 6.99832 5.4248 6.71499C5.4248 6.43166 5.51647 6.19832 5.6998 6.01499C5.88314 5.83166 6.11647 5.73999 6.3998 5.73999C6.68314 5.73999 6.91647 5.83166 7.0998 6.01499L11.9998 10.915L16.8998 6.01499C17.0831 5.83166 17.3165 5.73999 17.5998 5.73999C17.8831 5.73999 18.1165 5.83166 18.2998 6.01499C18.4831 6.19832 18.5748 6.43166 18.5748 6.71499C18.5748 6.99832 18.4831 7.23166 18.2998 7.41499L13.3998 12.315L18.2998 17.215C18.4831 17.3983 18.5748 17.6317 18.5748 17.915C18.5748 18.1983 18.4831 18.4317 18.2998 18.615C18.1165 18.7983 17.8831 18.89 17.5998 18.89C17.3165 18.89 17.0831 18.7983 16.8998 18.615L11.9998 13.715Z" fill="#2A2A2A"/>
</g>
</svg>
