<svg width="25" height="24" viewBox="0 0 25 24" fill="none" xmlns="http://www.w3.org/2000/svg">
<mask id="mask0_4002_5026" style="mask-type:alpha" maskUnits="userSpaceOnUse" x="0" y="0" width="25" height="24">
<rect x="0.500977" width="24" height="24" fill="#D9D9D9"/>
</mask>
<g mask="url(#mask0_4002_5026)">
<path d="M11.501 13C11.7843 13 12.0218 12.9042 12.2135 12.7125C12.4051 12.5208 12.501 12.2833 12.501 12C12.501 11.7167 12.4051 11.4792 12.2135 11.2875C12.0218 11.0958 11.7843 11 11.501 11C11.2176 11 10.9801 11.0958 10.7885 11.2875C10.5968 11.4792 10.501 11.7167 10.501 12C10.501 12.2833 10.5968 12.5208 10.7885 12.7125C10.9801 12.9042 11.2176 13 11.501 13ZM7.50098 21V19L13.501 18V6.875C13.501 6.625 13.426 6.4 13.276 6.2C13.126 6 12.9343 5.88333 12.701 5.85L7.50098 5V3L13.001 3.9C13.7343 4.03333 14.3343 4.375 14.801 4.925C15.2676 5.475 15.501 6.11667 15.501 6.85V19.65L7.50098 21ZM3.50098 21V19H5.50098V5C5.50098 4.43333 5.69681 3.95833 6.08848 3.575C6.48014 3.19167 6.95098 3 7.50098 3H17.501C18.0676 3 18.5426 3.19167 18.926 3.575C19.3093 3.95833 19.501 4.43333 19.501 5V19H21.501V21H3.50098ZM7.50098 19H17.501V5H7.50098V19Z" fill="#1C1B1F"/>
</g>
</svg>